<svg width="20" height="20" viewBox="0 0 20 20" fill="none" xmlns="http://www.w3.org/2000/svg">
<path d="M9.83082 6.70137C8.11703 6.70137 6.71845 8.09998 6.71845 9.8138C6.71845 11.5276 8.11703 12.9262 9.83082 12.9262C11.5446 12.9262 12.9432 11.5276 12.9432 9.8138C12.9432 8.09998 11.5446 6.70137 9.83082 6.70137ZM19.1656 9.8138C19.1656 8.52493 19.1773 7.24773 19.1049 5.9612C19.0325 4.46686 18.6916 3.14063 17.5989 2.04789C16.5039 0.952815 15.18 0.614253 13.6857 0.541871C12.3968 0.469489 11.1197 0.481163 9.83316 0.481163C8.54431 0.481163 7.26714 0.469489 5.98063 0.541871C4.48631 0.614253 3.16011 0.95515 2.06739 2.04789C0.972338 3.14296 0.633782 4.46686 0.561401 5.9612C0.48902 7.25007 0.500694 8.52727 0.500694 9.8138C0.500694 11.1003 0.48902 12.3799 0.561401 13.6664C0.633782 15.1607 0.974673 16.487 2.06739 17.5797C3.16244 18.6748 4.48631 19.0133 5.98063 19.0857C7.26948 19.1581 8.54665 19.1464 9.83316 19.1464C11.122 19.1464 12.3992 19.1581 13.6857 19.0857C15.18 19.0133 16.5062 18.6725 17.5989 17.5797C18.694 16.4846 19.0325 15.1607 19.1049 13.6664C19.1796 12.3799 19.1656 11.1027 19.1656 9.8138ZM9.83082 14.6027C7.18075 14.6027 5.04201 12.4639 5.04201 9.8138C5.04201 7.16368 7.18075 5.0249 9.83082 5.0249C12.4809 5.0249 14.6196 7.16368 14.6196 9.8138C14.6196 12.4639 12.4809 14.6027 9.83082 14.6027ZM14.8158 5.94719C14.197 5.94719 13.6974 5.44752 13.6974 4.82877C13.6974 4.21002 14.197 3.71034 14.8158 3.71034C15.4345 3.71034 15.9342 4.21002 15.9342 4.82877C15.9344 4.97569 15.9056 5.12121 15.8494 5.25699C15.7933 5.39276 15.7109 5.51613 15.607 5.62002C15.5031 5.72391 15.3798 5.80629 15.244 5.86243C15.1082 5.91857 14.9627 5.94737 14.8158 5.94719Z" fill="white"/>
</svg>
