<svg width="22" height="18" viewBox="0 0 22 18" fill="none" xmlns="http://www.w3.org/2000/svg">
<path d="M21.5 2.50548C20.7277 2.84768 19.8981 3.0789 19.026 3.18341C19.9259 2.64494 20.5991 1.79746 20.9201 0.799102C20.0746 1.30129 19.1493 1.65478 18.1844 1.8442C17.5355 1.15135 16.676 0.692119 15.7393 0.537803C14.8027 0.383488 13.8413 0.542721 13.0044 0.990783C12.1675 1.43884 11.502 2.15067 11.1111 3.01573C10.7203 3.8808 10.6259 4.85071 10.8428 5.77488C9.12963 5.68886 7.45372 5.24359 5.9238 4.46796C4.39389 3.69232 3.04416 2.60366 1.96221 1.27263C1.59227 1.91079 1.37955 2.65068 1.37955 3.43867C1.37913 4.14804 1.55382 4.84654 1.88811 5.4722C2.2224 6.09786 2.70595 6.63134 3.29587 7.0253C2.61172 7.00353 1.94267 6.81867 1.3444 6.4861V6.54159C1.34433 7.53651 1.68848 8.50081 2.31846 9.27087C2.94843 10.0409 3.82542 10.5693 4.80063 10.7664C4.16597 10.9381 3.50058 10.9634 2.85471 10.8404C3.12985 11.6964 3.66581 12.445 4.38755 12.9814C5.10929 13.5177 5.98068 13.8149 6.87972 13.8314C5.35354 15.0295 3.46871 15.6793 1.52845 15.6765C1.18475 15.6766 0.841346 15.6565 0.5 15.6164C2.46948 16.8827 4.7621 17.5547 7.10354 17.5521C15.0296 17.5521 19.3626 10.9874 19.3626 5.29395C19.3626 5.10898 19.358 4.92215 19.3497 4.73718C20.1925 4.12767 20.92 3.37291 21.4982 2.50825L21.5 2.50548Z" fill="white"/>
</svg>
