<svg width="19" height="14" viewBox="0 0 19 14" fill="none" xmlns="http://www.w3.org/2000/svg">
<path d="M18.1243 2.5112C18.0219 2.11797 17.821 1.75936 17.5417 1.47128C17.2625 1.18319 16.9147 0.975722 16.5333 0.869641C15.129 0.480469 9.5 0.480469 9.5 0.480469C9.5 0.480469 3.87098 0.480469 2.46674 0.867571C2.08509 0.973308 1.73715 1.18066 1.45787 1.4688C1.17859 1.75694 0.977802 2.11573 0.87567 2.50913C0.5 3.95818 0.5 6.98047 0.5 6.98047C0.5 6.98047 0.5 10.0028 0.87567 11.4498C1.08259 12.2488 1.6933 12.8781 2.46674 13.0913C3.87098 13.4805 9.5 13.4805 9.5 13.4805C9.5 13.4805 15.129 13.4805 16.5333 13.0913C17.3087 12.8781 17.9174 12.2488 18.1243 11.4498C18.5 10.0028 18.5 6.98047 18.5 6.98047C18.5 6.98047 18.5 3.95818 18.1243 2.5112ZM7.71205 9.75436V4.20658L12.3728 6.95977L7.71205 9.75436Z" fill="#F8F8F8"/>
</svg>
