<svg width="17" height="16" viewBox="0 0 17 16" fill="none" xmlns="http://www.w3.org/2000/svg">
<path d="M8.5 16C8.293 16 8.11936 15.9301 7.97909 15.7903C7.83881 15.6505 7.76892 15.4769 7.76941 15.2694V14.5388C6.24734 14.3683 4.94128 13.7383 3.85123 12.6488C2.76119 11.5592 2.13117 10.2531 1.96119 8.73059H1.23059C1.02359 8.73059 0.850198 8.66045 0.710411 8.52018C0.570624 8.37991 0.500487 8.20651 0.5 8C0.5 7.793 0.570137 7.61936 0.710411 7.47909C0.850685 7.33881 1.02408 7.26892 1.23059 7.26941H1.96119C2.13166 5.74734 2.76192 4.44128 3.85196 3.35123C4.94201 2.26119 6.24782 1.63117 7.76941 1.46119V0.730594C7.76941 0.523592 7.83954 0.350198 7.97982 0.210411C8.12009 0.0706241 8.29348 0.000487062 8.5 0C8.707 0 8.88064 0.0701371 9.02091 0.210411C9.16119 0.350685 9.23108 0.524079 9.23059 0.730594V1.46119C10.7527 1.63166 12.0587 2.26192 13.1488 3.35196C14.2388 4.44201 14.8688 5.74782 15.0388 7.26941H15.7694C15.9764 7.26941 16.15 7.33954 16.2903 7.47982C16.4306 7.62009 16.5005 7.79348 16.5 8C16.5 8.207 16.4301 8.38064 16.2903 8.52091C16.1505 8.66119 15.9769 8.73108 15.7694 8.73059H15.0388C14.8683 10.2527 14.2383 11.5587 13.1488 12.6488C12.0592 13.7388 10.7531 14.3688 9.23059 14.5388V15.2694C9.23059 15.4764 9.16045 15.65 9.02018 15.7903C8.87991 15.9306 8.70651 16.0005 8.5 16ZM8.5 13.1142C9.91248 13.1142 11.118 12.6149 12.1164 11.6164C13.1149 10.618 13.6142 9.41248 13.6142 8C13.6142 6.58752 13.1149 5.38204 12.1164 4.38356C11.118 3.38508 9.91248 2.88584 8.5 2.88584C7.08752 2.88584 5.88204 3.38508 4.88356 4.38356C3.88508 5.38204 3.38584 6.58752 3.38584 8C3.38584 9.41248 3.88508 10.618 4.88356 11.6164C5.88204 12.6149 7.08752 13.1142 8.5 13.1142ZM8.5 10.9224C7.69635 10.9224 7.00837 10.6362 6.43607 10.0639C5.86377 9.49163 5.57762 8.80365 5.57762 8C5.57762 7.19635 5.86377 6.50837 6.43607 5.93607C7.00837 5.36377 7.69635 5.07762 8.5 5.07762C9.30365 5.07762 9.99163 5.36377 10.5639 5.93607C11.1362 6.50837 11.4224 7.19635 11.4224 8C11.4224 8.80365 11.1362 9.49163 10.5639 10.0639C9.99163 10.6362 9.30365 10.9224 8.5 10.9224Z" fill="#114B9F"/>
</svg>
