<svg width="14" height="15" viewBox="0 0 14 15" fill="none" xmlns="http://www.w3.org/2000/svg">
<path d="M6.5293 0.046875C6.35352 0.134766 6.31543 0.240234 6.31543 0.624023V0.960938L6.16309 0.996094C5.86426 1.06934 5.3457 1.29199 5.13477 1.44434L5.0498 1.50293L4.80957 1.2627C4.41406 0.870117 4.30566 0.875977 3.87793 1.3125C3.7168 1.47363 3.58496 1.63477 3.57617 1.67871C3.5293 1.86328 3.57617 1.96289 3.82812 2.21484L4.06836 2.45801L3.88965 2.81836C3.78125 3.0293 3.67285 3.29883 3.62891 3.46289L3.5498 3.75H3.22461C2.67383 3.75 2.59473 3.83496 2.59473 4.43262C2.59473 5.04785 2.66797 5.12695 3.21875 5.12695H3.55859L3.59082 5.25C3.6875 5.63086 3.83984 5.99121 4.02148 6.27832L4.09473 6.39551L3.85449 6.63574C3.68457 6.80566 3.61133 6.90527 3.59668 6.97559C3.55566 7.16602 3.58496 7.23047 3.81934 7.47656C4.12402 7.79883 4.24414 7.88086 4.39355 7.88086C4.54004 7.88086 4.59863 7.84277 4.86816 7.58203L5.07617 7.37988L5.35449 7.52637C5.62988 7.67578 6.02832 7.82812 6.23633 7.86621L6.34473 7.88672V8.21484C6.34473 8.76855 6.42969 8.84766 7.02734 8.84766C7.64551 8.84766 7.72168 8.78027 7.72168 8.22656V7.88672L7.87695 7.85156C8.05273 7.81055 8.50391 7.6377 8.65918 7.55273C8.71484 7.52051 8.81445 7.46191 8.87891 7.42383L8.99902 7.35352L9.23047 7.59082C9.61719 7.97754 9.72852 7.97168 10.1621 7.53516C10.5869 7.10742 10.5928 6.9873 10.1973 6.5918L9.97461 6.36621L10.0801 6.18457C10.2324 5.92676 10.3203 5.71582 10.4141 5.39355L10.4932 5.1123L10.8447 5.09766C11.2256 5.08301 11.2959 5.05664 11.3838 4.91309C11.4336 4.83105 11.4424 4.76367 11.4424 4.40918C11.4424 3.78809 11.3809 3.7207 10.8213 3.7207H10.4902L10.4229 3.47754C10.3438 3.19629 10.1738 2.80371 10.042 2.5957L9.94824 2.44922L10.1943 2.2002C10.5752 1.80762 10.5693 1.71973 10.127 1.27734C9.83984 0.993164 9.83105 0.987305 9.67871 0.972656C9.52637 0.960938 9.51465 0.966797 9.36816 1.09277C9.2832 1.16309 9.16602 1.27734 9.11035 1.34473C9.05176 1.40918 8.99316 1.46484 8.97559 1.46484C8.95801 1.46484 8.87012 1.4209 8.7793 1.36523C8.55957 1.2334 8.29004 1.11914 7.9707 1.02539L7.70703 0.949219L7.69238 0.597656C7.67773 0.216797 7.65137 0.146484 7.50781 0.0585938C7.42578 0.00878906 7.3584 0 7.01855 0C6.7168 0 6.59961 0.0117188 6.5293 0.046875ZM7.52832 2.46094C8.08789 2.60449 8.57422 2.99707 8.84082 3.52734C9.11621 4.06934 9.10742 4.81055 8.82031 5.35547C8.29883 6.35156 7.10059 6.72949 6.08105 6.21973C5.91992 6.1377 5.79395 6.04395 5.60938 5.85938C5.20508 5.45801 5.03516 5.08008 5.00586 4.51172C4.98535 4.13965 5.05273 3.8291 5.22266 3.48633C5.36328 3.20508 5.74414 2.80957 6.02246 2.65723C6.20117 2.56055 6.50293 2.44922 6.66699 2.42285C6.88086 2.3877 7.31445 2.40527 7.52832 2.46094Z" fill="#114B9F"/>
<path d="M4.58691 9.01172C4.2793 9.20508 3.0459 9.80273 2.47754 10.0312C1.75391 10.3271 1.55176 10.4414 1.27637 10.7197C0.957031 11.042 0.78125 11.3965 0.658203 11.9678C0.579102 12.3369 0.517578 13.2627 0.508789 14.2031L0.5 15H7.10645H13.7129L13.707 14.3203C13.6836 12.0791 13.5195 11.3086 12.9365 10.7197C12.6611 10.4414 12.4531 10.3213 11.7793 10.0488C11.2109 9.82031 10.124 9.30176 9.70215 9.05566C9.55859 8.97363 9.42969 8.91504 9.4209 8.92676C9.40918 8.94141 9.29492 9.28711 9.16602 9.69727C9.03418 10.1074 8.72949 11.083 8.48047 11.8652C8.23438 12.6475 8.02637 13.2979 8.01465 13.3096C8.00293 13.3213 7.87402 12.9844 7.72461 12.5596L7.45215 11.7861L7.5752 11.5986C7.83887 11.1914 7.98535 10.8164 7.98535 10.5439C7.98535 10.1191 7.49609 9.83496 6.91309 9.92578C6.45898 9.99609 6.22754 10.2188 6.22754 10.5879C6.22754 10.7578 6.37109 11.1475 6.5293 11.4082C6.6084 11.5371 6.69336 11.6777 6.7168 11.7188C6.75781 11.7891 6.74609 11.8359 6.48828 12.5596C6.33887 12.9844 6.20703 13.3184 6.19531 13.3066C6.18359 13.2949 5.91699 12.4629 5.59766 11.4551C4.85352 9.09082 4.79199 8.90625 4.76855 8.90918C4.75684 8.90918 4.6748 8.95605 4.58691 9.01172Z" fill="#114B9F"/>
</svg>
