<svg width="15" height="16" viewBox="0 0 15 16" fill="none" xmlns="http://www.w3.org/2000/svg">
<path d="M6.55734 0.167433L6.36003 0.32185L6.54019 1.38561C6.72034 2.45795 6.70318 2.67242 6.42866 2.67242C6.22277 2.67242 6.13699 2.44937 5.99115 1.57434L5.84531 0.707892L5.57937 0.853731C4.79013 1.29982 4.07809 2.36359 3.88936 3.39303C3.82073 3.76192 3.74352 3.95923 3.66631 3.95923C3.50332 3.95923 3.12585 4.34527 3.12585 4.51685C3.12585 4.59405 3.22022 4.74847 3.34032 4.85999L3.54621 5.07446H7.501H11.4558L11.6617 4.85999C11.7818 4.74847 11.8762 4.59405 11.8762 4.51685C11.8762 4.34527 11.4987 3.95923 11.3357 3.95923C11.2585 3.95923 11.1813 3.76192 11.1126 3.39303C10.9239 2.36359 10.2119 1.29982 9.42264 0.853731L9.1567 0.707892L9.01086 1.57434C8.86502 2.44937 8.77923 2.67242 8.57334 2.67242C8.29883 2.67242 8.28167 2.45795 8.46182 1.38561L8.64197 0.32185L8.44466 0.167433C8.17014 -0.055614 6.83186 -0.055614 6.55734 0.167433Z" fill="#114B9F"/>
<path d="M3.55481 6.07794C3.55481 6.41251 3.91512 7.3047 4.05238 7.3047C4.09527 7.3047 4.26684 7.5878 4.43842 7.92237C5.45071 9.95553 7.06351 10.8391 8.46184 10.1271C9.2854 9.71532 9.99743 8.9175 10.5036 7.86232C10.6494 7.55348 10.8124 7.28754 10.8553 7.25323C10.9926 7.16744 11.2499 6.54119 11.3186 6.12084L11.3786 5.76053H11.0355C10.7352 5.76053 10.7009 5.77769 10.7352 5.94926C10.7867 6.2581 10.5636 6.91008 10.3749 6.99587C10.2805 7.03876 10.0575 7.36475 9.88591 7.72506C8.91651 9.7239 7.31229 10.2729 5.97401 9.06334C5.56223 8.69445 5.10756 8.02531 4.87593 7.45912C4.79015 7.23607 4.64431 7.03876 4.55852 7.01302C4.35263 6.96155 4.12958 6.38678 4.18106 6.04363C4.23253 5.76053 4.22395 5.76053 3.88938 5.76053C3.56339 5.76053 3.55481 5.76053 3.55481 6.07794Z" fill="#114B9F"/>
<path d="M4.41309 12.0232V13.5674H7.50143H10.5898V12.0232C10.5898 10.2817 10.564 10.2388 10.0322 10.7707C9.87773 10.9337 9.51743 11.1568 9.24291 11.2597C8.80539 11.4399 8.5995 11.457 7.50143 11.457C6.40335 11.457 6.19746 11.4399 5.75995 11.2597C5.48543 11.1568 5.12512 10.9337 4.9707 10.7707C4.43882 10.2388 4.41309 10.2817 4.41309 12.0232Z" fill="#114B9F"/>
<path d="M2.38824 10.8564C1.60758 11.1996 0.758282 12.4692 0.526657 13.6445C0.397976 14.2622 0.741125 14.8541 1.42742 15.2058C1.86494 15.4289 1.92499 15.4117 1.92499 15.0686C1.92499 14.6311 2.10514 14.2536 2.47403 13.9362L2.78286 13.6617V12.1947C2.78286 11.3969 2.75713 10.7363 2.72281 10.7363C2.67992 10.7449 2.53408 10.7964 2.38824 10.8564Z" fill="#114B9F"/>
<path d="M12.2197 12.1947V13.6617L12.5286 13.9362C12.8974 14.2536 13.0776 14.6311 13.0776 15.0686C13.0776 15.4117 13.1377 15.4289 13.5752 15.2058C14.3215 14.8284 14.6303 14.2193 14.4502 13.4901C14.3044 12.9153 13.8239 11.9459 13.4722 11.5342C13.1548 11.1738 12.7602 10.8907 12.417 10.7792L12.2197 10.7278V12.1947Z" fill="#114B9F"/>
</svg>
