<svg width="11" height="6" viewBox="0 0 11 6" fill="none" xmlns="http://www.w3.org/2000/svg">
<path d="M10.7719 1.18894L6.12672 5.84792C6.07142 5.90322 6.01151 5.94248 5.947 5.96571C5.88248 5.98893 5.81336 6.00036 5.73962 5.99999C5.66589 5.99999 5.59677 5.98856 5.53225 5.96571C5.46774 5.94285 5.40783 5.90359 5.35253 5.84792L0.693548 1.18894C0.564516 1.05991 0.5 0.898616 0.5 0.705068C0.5 0.511519 0.569124 0.345622 0.707373 0.207373C0.845622 0.0691242 1.00691 -4.76837e-07 1.19124 -4.76837e-07C1.37557 -4.76837e-07 1.53686 0.0691242 1.67511 0.207373L5.73962 4.27188L9.80414 0.207373C9.93317 0.0783405 10.0922 0.0138245 10.2814 0.0138245C10.4705 0.0138245 10.634 0.0829487 10.7719 0.221198C10.9101 0.359446 10.9792 0.520736 10.9792 0.705068C10.9792 0.889399 10.9101 1.05069 10.7719 1.18894Z" fill="#F8F8F8"/>
</svg>
