<svg width="41" height="36" viewBox="0 0 41 36" fill="none" xmlns="http://www.w3.org/2000/svg">
<path opacity="0.24" d="M36.75 18H30.5V12.8571C30.5 10.0205 32.7422 7.71429 35.5 7.71429H36.125C37.1641 7.71429 38 6.85446 38 5.78571V1.92857C38 0.859821 37.1641 0 36.125 0H35.5C28.5938 0 23 5.75357 23 12.8571V32.1429C23 34.2723 24.6797 36 26.75 36H36.75C38.8203 36 40.5 34.2723 40.5 32.1429V21.8571C40.5 19.7277 38.8203 18 36.75 18ZM14.25 18H8V12.8571C8 10.0205 10.2422 7.71429 13 7.71429H13.625C14.6641 7.71429 15.5 6.85446 15.5 5.78571V1.92857C15.5 0.859821 14.6641 0 13.625 0H13C6.09375 0 0.5 5.75357 0.5 12.8571V32.1429C0.5 34.2723 2.17969 36 4.25 36H14.25C16.3203 36 18 34.2723 18 32.1429V21.8571C18 19.7277 16.3203 18 14.25 18Z" fill="#114B9F"/>
</svg>
